<?xml version="1.0" standalone="no"?>
<!DOCTYPE svg PUBLIC "-//W3C//DTD SVG 20010904//EN"
 "http://www.w3.org/TR/2001/REC-SVG-20010904/DTD/svg10.dtd">
<svg version="1.0" xmlns="http://www.w3.org/2000/svg"
 width="1024.000000pt" height="1024.000000pt" viewBox="0 0 1024.000000 1024.000000"
 preserveAspectRatio="xMidYMid meet">

<g transform="translate(0.000000,1024.000000) scale(0.100000,-0.100000)"
fill="#000000" stroke="none">
<path d="M4840 9099 c-1251 -559 -1930 -802 -2635 -944 -187 -37 -214 -49
-251 -103 -26 -37 -30 -78 -45 -427 -20 -485 15 -970 102 -1380 138 -653 425
-1312 800 -1835 427 -597 977 -1088 1649 -1475 197 -114 566 -293 617 -301 63
-9 137 18 397 145 1049 512 1847 1290 2335 2276 266 537 419 1054 492 1665 27
229 37 722 20 1044 -14 257 -26 304 -86 338 -16 9 -99 31 -184 48 -653 131
-1320 362 -2351 816 -553 243 -530 234 -585 233 -42 0 -88 -17 -275 -100z
m663 -463 c1036 -453 1606 -658 2241 -805 92 -22 173 -44 178 -49 21 -21 29
-102 35 -337 11 -469 -42 -928 -160 -1390 l-23 -90 -28 85 c-69 216 -202 316
-463 350 -92 12 -94 11 -200 -21 -141 -43 -279 -47 -386 -10 -62 21 -75 22
-139 13 -38 -6 -72 -12 -74 -15 -2 -2 48 -171 111 -376 86 -282 112 -378 105
-395 -11 -29 -85 -96 -196 -175 -141 -100 -369 -205 -747 -341 -185 -67 -236
-117 -223 -224 l5 -49 -154 6 c-185 6 -172 12 -347 -131 -132 -107 -158 -136
-158 -175 0 -69 83 -68 239 2 62 28 126 51 143 51 25 0 59 -29 220 -190 158
-157 195 -189 212 -184 38 12 103 63 137 106 19 24 38 46 44 50 11 8 0 4 541
191 216 75 421 150 455 168 98 49 186 124 416 358 117 118 215 212 218 209 7
-7 -52 -126 -123 -249 -469 -812 -1159 -1456 -2011 -1877 -261 -129 -246 -129
-493 -5 -752 376 -1411 949 -1845 1603 -155 233 -313 513 -299 528 4 3 105
-93 224 -214 119 -121 246 -243 280 -272 81 -67 174 -113 321 -162 159 -52
790 -279 821 -295 15 -8 32 -21 40 -30 11 -14 19 -9 71 40 51 48 62 55 99 55
22 0 54 -7 69 -15 35 -18 79 -69 87 -101 4 -15 13 -24 26 -24 49 0 121 -64
133 -119 5 -22 13 -30 37 -35 39 -8 106 -75 114 -114 5 -24 13 -32 35 -37 65
-14 119 -85 119 -153 0 -35 4 -41 30 -52 56 -23 117 28 108 90 -4 29 -4 30 32
24 69 -11 132 48 116 110 -6 24 -5 24 30 15 64 -18 127 40 111 102 -4 13 -91
109 -195 212 l-188 188 -115 -52 c-138 -64 -205 -74 -266 -39 -48 27 -74 62
-80 108 -7 61 29 115 146 217 57 49 104 95 105 100 1 20 -52 34 -145 41 -85 6
-101 4 -174 -21 -46 -16 -112 -29 -155 -32 l-75 -5 -435 147 c-239 81 -448
154 -465 162 -16 9 -162 149 -322 312 -305 308 -323 332 -259 339 26 3 57 -24
320 -287 l291 -290 260 -89 c417 -143 607 -204 640 -204 65 0 175 41 175 65 0
7 -15 27 -33 45 -25 25 -71 44 -207 91 -219 74 -354 128 -496 197 -209 102
-434 270 -434 326 0 12 50 184 111 381 61 197 109 361 105 364 -3 3 -36 12
-73 19 -63 12 -73 12 -133 -9 -52 -18 -86 -22 -175 -21 -96 0 -123 5 -208 33
-87 29 -106 32 -165 25 -279 -29 -452 -160 -504 -381 -7 -29 -15 -53 -18 -53
-7 0 -86 331 -115 480 -60 315 -91 704 -81 1011 7 220 19 309 41 325 8 6 54
19 103 29 589 117 1390 406 2512 909 91 40 159 65 183 65 28 1 129 -39 390
-153z m1752 -2896 c4 -12 -1 -30 -14 -48 -11 -15 -145 -151 -298 -303 l-278
-277 -134 -51 c-144 -56 -184 -61 -189 -23 -2 13 1 28 6 35 6 7 69 35 141 62
l131 50 287 288 c235 234 293 287 315 287 18 0 29 -7 33 -20z"/>
<path d="M4974 8296 c-77 -19 -192 -77 -256 -130 -79 -64 -171 -197 -192 -276
-4 -14 8 7 27 45 37 76 92 150 159 215 53 50 202 123 285 140 94 19 242 8 328
-23 38 -14 71 -24 73 -23 5 5 -101 44 -151 56 -58 13 -211 11 -273 -4z"/>
<path d="M5423 8228 c124 -87 162 -124 245 -244 7 -11 2 1 -10 26 -30 58 -150
179 -208 208 -25 12 -37 17 -27 10z"/>
<path d="M5681 7960 c-1 -3 10 -32 24 -65 13 -33 25 -53 25 -45 0 14 -48 121
-49 110z"/>
<path d="M4490 7758 c-14 -82 -8 -191 15 -258 8 -25 12 -34 10 -20 -24 116
-28 184 -17 262 15 102 8 115 -8 16z"/>
<path d="M5737 7780 c3 -30 7 -57 9 -59 7 -8 2 64 -6 89 -6 16 -7 6 -3 -30z"/>
<path d="M5746 7631 c-4 -46 -5 -86 -2 -88 6 -6 19 143 14 159 -3 7 -8 -25
-12 -71z"/>
<path d="M3226 7615 c-191 -53 -342 -207 -391 -400 -8 -32 -15 -96 -15 -140 0
-159 53 -288 166 -401 168 -170 410 -209 627 -103 123 60 221 170 278 314 20
52 23 77 23 190 0 113 -3 138 -23 190 -69 177 -208 305 -378 349 -73 19 -219
20 -287 1z"/>
<path d="M6726 7615 c-242 -67 -406 -283 -406 -535 1 -297 216 -537 506 -565
148 -14 317 49 427 159 221 222 225 579 7 797 -73 73 -153 120 -247 144 -70
18 -220 18 -287 0z"/>
<path d="M5731 7514 c0 -11 3 -14 6 -6 3 7 2 16 -1 19 -3 4 -6 -2 -5 -13z"/>
<path d="M5700 7423 c-54 -143 -162 -261 -305 -336 -28 -14 -46 -26 -41 -27 4
0 35 14 67 31 75 40 176 133 224 205 38 57 88 169 83 185 -2 4 -14 -22 -28
-58z"/>
<path d="M4530 7416 c0 -4 14 -36 32 -70 38 -72 171 -210 238 -245 55 -29 44
-18 -33 33 -76 51 -148 132 -197 220 -22 39 -40 67 -40 62z"/>
<path d="M4870 7065 c14 -8 30 -14 35 -14 6 0 -1 6 -15 14 -14 8 -29 14 -35
14 -5 0 1 -6 15 -14z"/>
<path d="M4960 7033 c32 -11 78 -16 160 -16 82 0 128 5 160 16 25 9 34 14 20
12 -115 -24 -184 -28 -257 -17 -43 6 -89 14 -103 17 -14 2 -5 -3 20 -12z"/>
<path d="M4554 6925 c-72 -13 -148 -34 -142 -40 2 -2 37 6 78 16 113 29 228
36 267 15 45 -23 56 -19 13 4 -41 23 -111 24 -216 5z"/>
<path d="M5480 6925 c-15 -10 -17 -13 -5 -8 38 15 187 7 274 -16 153 -40 285
-114 402 -225 33 -32 63 -56 65 -53 8 8 -118 118 -189 164 -136 89 -284 139
-437 149 -68 4 -90 1 -110 -11z"/>
<path d="M5430 6900 c-9 -6 -10 -10 -3 -10 6 0 15 5 18 10 8 12 4 12 -15 0z"/>
<path d="M4817 6889 c5 -5 42 -21 83 -35 136 -47 318 -44 458 8 81 30 58 30
-28 0 -68 -24 -88 -27 -215 -26 -131 0 -145 2 -223 31 -46 17 -80 27 -75 22z"/>
<path d="M4370 6870 c-8 -5 -10 -10 -5 -10 6 0 17 5 25 10 8 5 11 10 5 10 -5
0 -17 -5 -25 -10z"/>
<path d="M4314 6844 c-18 -14 -18 -14 6 -3 31 14 36 19 24 19 -6 0 -19 -7 -30
-16z"/>
<path d="M4243 6804 c-24 -14 -43 -27 -43 -30 0 -6 67 33 85 48 17 15 1 8 -42
-18z"/>
<path d="M4120 6716 c-105 -87 -194 -202 -254 -330 -34 -72 -107 -285 -105
-308 0 -7 20 46 43 118 81 251 171 387 361 548 17 14 28 26 25 26 -3 0 -35
-24 -70 -54z"/>
<path d="M6264 6550 c27 -36 59 -86 72 -112 13 -27 27 -48 29 -48 17 0 -98
183 -131 210 -9 8 4 -14 30 -50z"/>
<path d="M6376 6365 c3 -11 16 -49 29 -85 12 -36 44 -138 70 -228 26 -89 50
-161 52 -158 6 6 -115 404 -138 450 -10 23 -16 32 -13 21z"/>
<path d="M4284 6014 c-25 -53 -43 -98 -41 -100 2 -3 22 35 43 82 21 48 45 93
52 101 9 8 10 13 2 13 -6 0 -32 -43 -56 -96z"/>
<path d="M5910 6090 c6 -11 13 -20 16 -20 2 0 0 9 -6 20 -6 11 -13 20 -16 20
-2 0 0 -9 6 -20z"/>
<path d="M5864 6086 c-3 -8 -4 -23 -2 -33 3 -11 6 -6 9 15 6 34 2 42 -7 18z"/>
<path d="M4374 5970 c0 -63 1 -89 3 -57 2 31 2 83 0 115 -2 31 -3 5 -3 -58z"/>
<path d="M3711 5924 c-23 -75 -41 -138 -38 -140 2 -2 23 57 46 132 23 75 41
138 38 140 -2 2 -23 -57 -46 -132z"/>
<path d="M5943 6030 c39 -93 90 -200 94 -197 4 5 -91 214 -102 225 -4 4 0 -9
8 -28z"/>
<path d="M5854 5890 c0 -74 1 -105 3 -67 2 37 2 97 0 135 -2 37 -3 6 -3 -68z"/>
<path d="M4197 5821 c-20 -43 -45 -98 -55 -122 -11 -24 -28 -64 -39 -89 -11
-25 -37 -83 -58 -130 -21 -47 -41 -89 -45 -93 -15 -17 -243 122 -328 199 l-43
39 16 53 c9 30 14 56 12 58 -2 3 -12 -22 -21 -53 l-17 -58 51 -47 c79 -74 319
-223 334 -207 8 8 236 523 232 526 -1 2 -19 -32 -39 -76z"/>
<path d="M6534 5863 c2 -10 10 -37 17 -61 7 -23 14 -40 16 -38 5 5 -27 116
-33 116 -3 0 -3 -8 0 -17z"/>
<path d="M4385 5535 c4 -176 10 -323 13 -327 4 -4 21 -9 37 -12 30 -6 30 -5
-2 6 l-33 11 0 76 c0 151 -13 556 -18 561 -2 3 -1 -139 3 -315z"/>
<path d="M6041 5815 c0 -5 6 -21 14 -35 8 -14 14 -20 14 -15 0 6 -6 21 -14 35
-8 14 -14 21 -14 15z"/>
<path d="M6072 5742 c51 -127 166 -372 174 -372 13 0 193 106 214 127 8 8 -34
-15 -94 -51 -60 -36 -112 -66 -116 -66 -4 0 -44 83 -90 185 -45 102 -85 185
-87 185 -3 0 -3 -4 -1 -8z"/>
<path d="M6571 5746 c-1 -5 7 -34 16 -64 l18 -55 -65 -60 c-36 -33 -47 -46
-25 -30 22 17 53 45 69 62 l30 31 -21 63 c-12 34 -22 58 -22 53z"/>
<path d="M5846 5723 c-6 -14 -5 -15 5 -6 7 7 10 15 7 18 -3 3 -9 -2 -12 -12z"/>
<path d="M5842 5503 c2 -200 6 -177 10 65 2 72 0 132 -4 132 -5 0 -7 -89 -6
-197z"/>
<path d="M5782 5198 c-29 -12 -51 -22 -49 -24 6 -6 96 27 103 37 6 11 10 12
-54 -13z"/>
<path d="M4500 5176 c0 -2 36 -16 81 -31 92 -31 149 -70 199 -138 27 -36 41
-47 60 -46 24 2 24 2 -2 6 -16 2 -28 9 -28 14 0 15 -89 107 -126 129 -18 12
-65 32 -105 45 -78 27 -79 27 -79 21z"/>
<path d="M5675 5155 c-25 -12 -26 -14 -5 -9 28 7 60 23 45 23 -5 0 -23 -6 -40
-14z"/>
<path d="M5574 5111 c-57 -33 -110 -89 -130 -137 -7 -18 -19 -34 -26 -37 -8
-4 -7 -6 4 -6 10 -1 21 12 28 33 16 49 76 111 140 146 30 16 51 30 45 30 -5 0
-33 -13 -61 -29z"/>
<path d="M4903 4953 c15 -2 37 -2 50 0 12 2 0 4 -28 4 -27 0 -38 -2 -22 -4z"/>
<path d="M4993 4943 c9 -2 25 -2 35 0 9 3 1 5 -18 5 -19 0 -27 -2 -17 -5z"/>
<path d="M5109 4914 c55 -23 68 -25 105 -16 l41 11 -46 -5 c-32 -3 -58 1 -90
15 -24 12 -51 21 -59 20 -8 0 14 -11 49 -25z"/>
<path d="M5290 4919 c-23 -5 -10 -5 35 -2 39 3 72 7 74 9 7 7 -72 2 -109 -7z"/>
<path d="M4500 4243 c-90 -83 -110 -133 -70 -173 12 -12 33 -20 53 -20 29 0
45 12 110 79 83 85 94 114 57 151 -38 38 -81 27 -150 -37z"/>
<path d="M4640 4083 c-46 -45 -82 -90 -86 -106 -9 -40 22 -81 66 -85 29 -3 41
5 121 85 54 55 89 97 89 110 0 37 -38 73 -77 73 -30 0 -45 -10 -113 -77z"/>
<path d="M4794 3928 c-46 -46 -86 -94 -89 -108 -9 -38 27 -80 69 -80 28 0 45
13 119 89 51 51 87 97 87 108 0 35 -38 73 -72 73 -25 0 -46 -15 -114 -82z"/>
<path d="M4948 3782 c-86 -86 -95 -112 -55 -150 43 -41 73 -30 159 56 85 86
93 108 53 147 -42 43 -70 34 -157 -53z"/>
<path d="M2714 2420 c-37 -15 -64 -59 -64 -104 0 -48 19 -80 60 -101 79 -41
180 15 180 100 0 83 -93 139 -176 105z"/>
<path d="M2015 2409 c-36 -5 -90 -24 -135 -46 -121 -62 -176 -153 -174 -293 2
-170 98 -256 363 -321 150 -37 182 -50 216 -91 24 -28 27 -38 22 -82 -4 -41
-11 -55 -40 -82 -67 -61 -206 -66 -289 -11 -18 13 -44 45 -58 72 l-25 50 -107
3 -108 3 0 -35 c0 -94 68 -206 160 -262 75 -46 154 -64 276 -64 165 0 286 50
361 148 96 126 78 326 -38 425 -52 45 -131 78 -284 118 -135 35 -159 46 -195
84 -30 32 -33 89 -6 129 36 56 153 83 237 55 43 -15 85 -54 110 -102 l20 -38
97 3 97 3 -3 50 c-1 30 -13 71 -29 103 -74 146 -246 212 -468 181z"/>
<path d="M2969 2379 c-6 -3 57 -241 147 -557 l158 -552 123 0 123 0 11 26 c5
15 53 177 107 361 89 306 98 332 109 306 6 -15 58 -178 114 -360 l103 -333
117 0 c65 0 120 4 123 8 3 5 60 206 126 448 67 241 135 486 151 543 17 57 28
105 26 108 -6 5 -237 6 -242 1 -1 -2 -44 -178 -95 -393 -51 -214 -96 -393 -99
-397 -4 -4 -51 168 -106 383 -55 215 -102 394 -105 399 -8 13 -228 17 -239 5
-7 -8 -90 -314 -198 -727 -10 -38 -20 -68 -23 -68 -3 0 -48 181 -101 402 l-96
402 -112 1 c-62 0 -117 -3 -122 -6z"/>
<path d="M5904 2381 c-2 -2 -4 -49 -4 -103 l0 -98 164 0 165 0 -1 -452 0 -453
111 -3 111 -3 0 455 0 456 163 2 162 3 3 98 3 97 -83 1 c-351 4 -790 4 -794 0z"/>
<path d="M4770 2106 c-136 -29 -229 -115 -255 -233 l-7 -33 93 0 92 0 36 39
c74 79 233 74 276 -9 18 -36 20 -100 3 -100 -91 -2 -314 -33 -362 -50 -136
-51 -194 -165 -155 -304 16 -56 80 -121 145 -146 106 -39 277 -18 359 44 l34
26 9 -32 8 -33 100 0 99 0 3 220 c4 334 -14 434 -96 518 -86 90 -233 126 -382
93z m253 -529 c-2 -60 -29 -106 -77 -133 -76 -43 -198 -38 -231 9 -36 52 -6
125 61 147 41 14 161 28 214 26 l35 -1 -2 -48z"/>
<path d="M7880 2109 c-69 -13 -144 -55 -190 -105 -142 -155 -145 -448 -5 -611
108 -127 345 -151 479 -48 25 19 46 32 46 27 -1 -41 -23 -149 -35 -172 -20
-39 -77 -67 -151 -75 -77 -9 -135 7 -183 51 l-38 34 -102 0 c-116 0 -119 -3
-80 -85 69 -146 286 -214 524 -163 115 25 204 99 247 207 22 55 23 66 26 489
l3 433 -103 -3 -103 -3 -3 -33 -3 -32 -40 34 c-66 56 -175 77 -289 55z m231
-210 c21 -10 48 -35 60 -56 21 -34 24 -50 24 -143 0 -92 -3 -110 -23 -142 -47
-75 -156 -108 -245 -74 -83 32 -120 97 -120 216 -1 125 45 197 139 219 50 12
119 3 165 -20z"/>
<path d="M5745 2096 c-56 -18 -97 -40 -120 -66 l-20 -22 -5 38 -5 39 -102 3
-103 3 0 -411 0 -411 108 3 107 3 5 250 c5 264 6 270 57 316 43 40 68 50 144
56 l69 6 0 103 0 104 -47 -1 c-27 0 -66 -6 -88 -13z"/>
<path d="M6975 2101 c-196 -51 -306 -225 -293 -460 15 -250 160 -391 400 -391
107 0 179 20 248 67 59 41 123 132 118 168 -3 18 -12 20 -92 23 -87 3 -90 2
-120 -26 -46 -44 -68 -52 -141 -52 -108 0 -155 31 -186 122 l-18 53 292 5 292
5 3 63 c8 175 -79 337 -217 400 -47 22 -72 27 -156 29 -55 1 -113 -2 -130 -6z
m191 -180 c44 -20 74 -56 92 -110 7 -19 12 -36 12 -37 0 -2 -83 -4 -185 -4
-121 0 -185 4 -185 10 0 21 31 85 53 109 48 52 139 66 213 32z"/>
<path d="M2660 1680 l0 -410 110 0 110 0 0 410 0 410 -110 0 -110 0 0 -410z"/>
</g>
</svg>
